<svg width="16" height="16" viewBox="0 0 16 16" fill="none" xmlns="http://www.w3.org/2000/svg">
  <path d="M7.16132 2.72534L2.40265 4.79801C2.24299 4.86907 2.11761 4.99933 2.05352 5.16192C1.98943 5.32452 1.99175 5.50578 2.05999 5.66667L5.34265 13.602C5.37427 13.6815 5.42149 13.7538 5.48152 13.8146C5.54155 13.8755 5.61317 13.9238 5.69216 13.9565C5.77114 13.9893 5.85589 14.0059 5.9414 14.0053C6.0269 14.0048 6.11143 13.9871 6.18999 13.9533L10.948 11.8807C11.1077 11.8096 11.233 11.6787 11.2971 11.5161C11.3612 11.3535 11.3589 11.1722 11.2907 11.0113L8.00799 3.07667C7.97636 2.99731 7.92917 2.92508 7.86919 2.86425C7.80921 2.80341 7.73765 2.7552 7.65874 2.72246C7.57984 2.68971 7.49517 2.6731 7.40974 2.67359C7.32431 2.67409 7.23984 2.69168 7.16132 2.72534Z" stroke="#1A1A1A" stroke-linecap="round" stroke-linejoin="round"/>
  <path d="M10 2.66666H10.6667C10.8435 2.66666 11.013 2.7369 11.1381 2.86193C11.2631 2.98695 11.3333 3.15652 11.3333 3.33333V5.66666" stroke="#1A1A1A" stroke-linecap="round" stroke-linejoin="round"/>
  <path d="M13.3333 4C13.5093 4.07467 13.68 4.14467 13.8453 4.21C14.0081 4.27906 14.1367 4.40993 14.203 4.57383C14.2692 4.73773 14.2677 4.92124 14.1987 5.084L12.6667 8.66667" stroke="#1A1A1A" stroke-linecap="round" stroke-linejoin="round"/>
</svg>
