<svg width="16" height="16" viewBox="0 0 16 16" fill="none" xmlns="http://www.w3.org/2000/svg">
  <path d="M6.90002 8.00002C6.90002 8.29176 7.01592 8.57155 7.22221 8.77784C7.4285 8.98413 7.70829 9.10002 8.00002 9.10002C8.29176 9.10002 8.57155 8.98413 8.77784 8.77784C8.98413 8.57155 9.10002 8.29176 9.10002 8.00002C9.10002 7.70829 8.98413 7.4285 8.77784 7.22221C8.57155 7.01592 8.29176 6.90002 8.00002 6.90002C7.70829 6.90002 7.4285 7.01592 7.22221 7.22221C7.01592 7.4285 6.90002 7.70829 6.90002 8.00002Z" fill="#727272"/>
  <path d="M2 8.00002C2 8.29176 2.11589 8.57155 2.32218 8.77784C2.52847 8.98413 2.80826 9.10002 3.1 9.10002C3.39174 9.10002 3.67153 8.98413 3.87782 8.77784C4.08411 8.57155 4.2 8.29176 4.2 8.00002C4.2 7.70829 4.08411 7.4285 3.87782 7.22221C3.67153 7.01592 3.39174 6.90002 3.1 6.90002C2.80826 6.90002 2.52847 7.01592 2.32218 7.22221C2.11589 7.4285 2 7.70829 2 8.00002Z" fill="#727272"/>
  <path d="M12 8.00002C12 8.29176 12.1159 8.57155 12.3222 8.77784C12.5285 8.98413 12.8083 9.10002 13.1 9.10002C13.3917 9.10002 13.6715 8.98413 13.8778 8.77784C14.0841 8.57155 14.2 8.29176 14.2 8.00002C14.2 7.70829 14.0841 7.4285 13.8778 7.22221C13.6715 7.01592 13.3917 6.90002 13.1 6.90002C12.8083 6.90002 12.5285 7.01592 12.3222 7.22221C12.1159 7.4285 12 7.70829 12 8.00002Z" fill="#727272"/>
</svg>
